# xmcd
#
# Track frame offsets:
# 150
# 13400
# 24675
# 36440
# 48732
# 63465
# 73707
# 82982
# 92805
# 106350
# 117695
# 129070
# 138635
# 149557
# 161720
# 172105
#
# Disc length: 2435 seconds
#
#
# Revision: 0
# Processed by: cddbd v1.5.1PL2 Copyright (c) Steve Scherf et al.
# Submitted via: FreeRIP 2.945 
#
DISCID=f6098110
DTITLE=Lester Flatt and Earl Scruggs - 16 Biggest Hits
DYEAR=2002
DGENRE=Bluegrass
TTITLE0='Tis Sweet To Be Remembered
TTITLE1=Cabin In The Hills
TTITLE2=Crying My Heart Out Over You
TTITLE3=Polka On A Banjo
TTITLE4=Go Home
TTITLE5=Just Ain't
TTITLE6=The Ballad Of Jeb Clampett
TTITLE7=Pearl Pearl Pearl
TTITLE8=Earl's Breakdown
TTITLE9=You Are My Flower
TTITLE10=Petticoat Junction
TTITLE11=Workin' It Out
TTITLE12=I Still Miss Someone
TTITLE13=Nashville Cats
TTITLE14=Down In The Flood
TTITLE15=Foggy Mountain Breakdown
EXTD=Columbia Legacy
EXTT0=
EXTT1=
EXTT2=
EXTT3=
EXTT4=
EXTT5=
EXTT6=
EXTT7=
EXTT8=
EXTT9=
EXTT10=
EXTT11=
EXTT12=
EXTT13=
EXTT14=
EXTT15=
PLAYORDER=
